<svg id="Capa_1" enable-background="new 0 0 511 511" height="512" viewBox="0 0 511 511" width="512" xmlns="http://www.w3.org/2000/svg"><g><g><g><path d="m428.167 255c0 15.238-1.974 30.015-5.68 44.089-61.987 51.911-147.806 53.284-208.655-9.467-56.263-58.022-51.332-153.622-2.421-201.609 14.074-3.706 28.851-5.68 44.089-5.68 95.361 0 172.667 77.306 172.667 172.667z" fill="#efc17a"/></g><g><path d="m226.444 270.622c-46.621-48.078-51.224-121.956-23.606-173.168-40.713 50.24-41.787 137.738 10.994 192.168 60.849 62.751 146.668 61.378 208.655 9.466.968-3.675 1.81-7.401 2.538-11.167-60.962 44.035-140.963 42.119-198.581-17.299z" fill="#e8ab4c"/></g><g><path d="m82.833 255c0 95.361 77.306 172.667 172.667 172.667 80.123 0 147.491-54.577 166.978-128.581-26.427 23.576-61.275 37.912-99.477 37.912-82.566 0-149.499-66.933-149.499-149.499 0-38.202 14.336-73.05 37.912-99.477-59.625 15.701-106.639 62.484-122.658 121.977" fill="#e4e8ed"/></g><g><path d="m270.81 411.823c-95.361 0-172.667-77.305-172.667-172.667l5.923-45c6.719-24.956 18.909-47.661 35.179-66.788-23.985 21.858-41.802 50.368-50.489 82.632l-5.923 45c0 95.361 77.306 172.667 172.667 172.667 52.719 0 99.913-23.63 131.582-60.873-30.682 27.969-71.482 45.029-116.272 45.029z" fill="#c8d1da"/></g><g><path d="m75.333 405h15v15h-15z" fill="#e8ab4c"/></g><g><path d="m31 90.402h15v15h-15z" fill="#e8ab4c"/></g></g><g><path d="m255.5 89.833c91.073 0 165.167 74.094 165.167 165.167 0 2.663-.064 5.36-.191 8.018l14.982.717c.139-2.895.209-5.833.209-8.734 0-99.345-80.822-180.167-180.167-180.167-3.35 0-6.743.094-10.084.278l.827 14.977c3.067-.17 6.181-.256 9.257-.256z"/><path d="m92.818 226.294-14.774-2.59c-.904 5.158-1.59 10.425-2.04 15.653l14.945 1.285c.412-4.793 1.041-9.621 1.869-14.348z"/><path d="m436.075 276.906c-28.556 25.473-57.172 47.064-96.667 51.645-42.819 4.966-86.3-10.222-116.768-40.69-30.427-30.427-45.733-73.985-40.69-116.768 4.661-39.539 26.137-68.074 51.644-96.667-29.849 7.86-58.331 16.2-83.757 34.634-33.202 24.071-57.656 59.376-68.322 98.99l14.484 3.9c13.235-49.155 48.545-89.192 94.639-108.888-39.226 61.424-30.046 144.023 21.412 195.39 51.47 51.379 133.906 60.692 195.409 21.399-31.223 73.255-113.344 114.388-190.719 95.707-73.205-17.674-126.407-85.264-126.407-160.558h-15c0 98.096 82.112 180.174 180.167 180.166 48.13-.004 95.065-19.761 128.755-54.114 28.941-29.511 41.562-65.19 51.82-104.146z"/><path d="m450.5 247.5h60v15h-60z"/><path d="m384.599 88.4h60v15.001h-60z" transform="matrix(.707 -.707 .707 .707 53.621 321.255)"/><path d="m407.099 382.5h15.001v60h-15.001z" transform="matrix(.707 -.707 .707 .707 -170.248 413.991)"/><path d="m248 0h15v60h-15z"/><path d="m248 451h15v60h-15z"/><path d="m61 435.501h-15v15h-15v15h15v15h15v-15h15v-15h-15z"/><path d="m91 75h15v-15h15v-15h-15v-15h-15v15h-15v15h15z"/><path d="m45.5 262.5v-15h-15v-15h-15v15h-15v15h15v15h15v-15z"/></g></g></svg>